<svg xmlns="http://www.w3.org/2000/svg" viewBox="0 0 2123 2123" width="1000" height="1000" xmlns:v="https://vecta.io/nano"><defs><linearGradient id="A" x2="1" gradientTransform="matrix(1267.485,-1029.996,687.672,846.23,443.991,1945.362)" href="#E"><stop offset="0" stop-color="#ff9f24"/><stop offset="1" stop-color="#ffd427"/></linearGradient><linearGradient id="B" x2="2040.417" x1="1457.856" y1="740.912" y2="740.912" href="#E"><stop offset=".092" stop-color="#ff9621"/><stop offset=".526" stop-color="#ffffb6"/><stop offset=".852" stop-color="#ffac23"/></linearGradient><linearGradient id="C" x2="1" gradientTransform="matrix(771.075,-771.075,284.926,284.926,-88.635,574.934)" href="#E"><stop offset=".092" stop-color="#ff9621"/><stop offset=".526" stop-color="#ffffb6"/><stop offset=".852" stop-color="#ffac23"/></linearGradient><linearGradient id="D" x2="1" gradientTransform="matrix(725.547,-725.547,147.523,147.523,-44.436,1488.086)" href="#E"><stop offset=".092" stop-color="#ff9a22"/><stop offset=".526" stop-color="#ffffb6"/><stop offset=".852" stop-color="#ffac23"/></linearGradient><linearGradient id="E" gradientUnits="userSpaceOnUse"/></defs><path d="M1100.1 117l220.5 531c17.2 34.9 50.4 59 88.9 64.6l582.5 54.6c66.6 9.7 93.2 75.5 45 122.5L1606.3 1268c-27.8 27.1-40.5 66.2-34 104.5l119.1 564.3c11.3 66.3-42.3 116.9-101.8 85.6L1099 1711.2c-38.8-25-88.6-25-127.4 0L481 2022.4c-59.6 31.3-113.2-19.3-101.8-85.6l64.3-299.5c15.2-63.2 55.1-117.6 110.7-151.2l449.1-277.7c25.9-15.9 35.6-39.2 26.4-68.2l-.1-.3c-6-18.6-35.8-32.1-55.3-30.6l-533.9 44.6c-64.9 5.1-129.1-16-178.3-58.6L33.6 889.7c-48.2-47-21.6-112.8 44.9-122.5l582.6-54.6c38.5-5.6 71.7-29.7 88.9-64.6l220.5-531c29.8-60.3 99.8-60.3 129.6 0z" fill="#d16812"/><path d="M1101.1 117.6l220.5 531c17.2 34.8 50.5 59 88.9 64.5l582.6 54.7c66.5 9.7 93.1 75.5 44.9 122.5l-430.7 378.3c-27.8 27.1-40.5 66.1-33.9 104.4l119 564.4c11.4 66.3-42.2 116.9-101.8 85.6L1100 1711.7c-38.8-25-88.6-25-127.4 0L482 2023c-59.5 31.3-113.1-19.3-101.8-85.6l64.4-299.6c15.2-63.1 55-117.6 110.6-151.2l449.1-277.6c25.9-16 35.7-39.2 26.4-68.2l-.1-.4c-5.9-18.6-35.8-32.1-55.2-30.5l-534 44.5c-64.8 5.1-129.1-15.9-178.3-58.5L34.6 890.3c-48.2-47-21.6-112.8 45-122.5l582.6-54.7c38.4-5.5 71.6-29.7 88.8-64.5l220.5-531c29.8-60.4 99.8-60.4 129.6 0z" fill="#d26912"/><path d="M1102.2 118.1l220.5 531c17.2 34.9 50.4 59 88.8 64.6l582.6 54.6c66.6 9.7 93.2 75.6 45 122.5l-430.7 378.3c-27.8 27.1-40.5 66.2-34 104.5l119.1 564.3c11.3 66.4-42.3 116.9-101.8 85.6l-490.6-311.2c-38.8-25-88.6-25-127.4 0l-490.6 311.2c-59.6 31.3-113.2-19.2-101.8-85.6l64.3-299.5c15.2-63.2 55.1-117.6 110.7-151.2l449.1-277.7c25.9-15.9 35.6-39.2 26.4-68.2l-.1-.3c-6-18.6-35.8-32.1-55.3-30.6L442.5 1155c-64.9 5.1-129.1-16-178.3-58.6L35.7 890.8C-12.5 843.9 14.1 778 80.6 768.3l582.6-54.6c38.4-5.6 71.7-29.7 88.9-64.6l220.5-531c29.8-60.3 99.8-60.3 129.6 0z" fill="#d36a13"/><path d="M1103.2 118.7l220.5 531c17.2 34.8 50.5 59 88.9 64.6l582.6 54.6c66.5 9.7 93.1 75.5 44.9 122.5l-430.7 378.3c-27.8 27.1-40.5 66.2-33.9 104.4l119 564.4c11.4 66.3-42.2 116.9-101.8 85.6l-490.6-311.2a117.19 117.19 0 0 0-127.4 0l-490.6 311.2c-59.5 31.3-113.1-19.3-101.8-85.6l64.3-299.6c15.3-63.1 55.1-117.6 110.7-151.1l449.1-277.7c25.9-16 35.7-39.2 26.4-68.2l-.1-.3c-5.9-18.6-35.8-32.2-55.2-30.6l-534 44.5c-64.8 5.2-129.1-15.9-178.3-58.5L36.7 891.4c-48.2-47-21.6-112.8 45-122.5l582.6-54.6c38.4-5.6 71.6-29.8 88.8-64.6l220.5-531c29.8-60.3 99.8-60.3 129.6 0z" fill="#d46b13"/><path d="M1104.3 119.2l220.5 531c17.2 34.9 50.4 59 88.8 64.6l582.6 54.7c66.6 9.6 93.2 75.5 45 122.4l-430.7 378.3c-27.8 27.1-40.5 66.2-34 104.5l119.1 564.4c11.3 66.3-42.3 116.8-101.8 85.5l-490.6-311.2c-38.8-25-88.6-25-127.4 0l-490.6 311.2c-59.6 31.3-113.2-19.2-101.8-85.5l64.3-299.6c15.2-63.2 55.1-117.6 110.7-151.2l449.1-277.7c25.9-15.9 35.6-39.2 26.4-68.1l-.1-.4c-6-18.6-35.8-32.1-55.3-30.6l-533.9 44.6a243.58 243.58 0 0 1-178.3-58.5L37.8 891.9C-10.4 845 16.2 779.1 82.7 769.5l582.6-54.7c38.4-5.6 71.7-29.7 88.9-64.6l220.5-531c29.8-60.3 99.8-60.3 129.6 0z" fill="#d56c13"/><path d="M1105.3 119.8l220.5 531c17.2 34.8 50.4 59 88.9 64.6l582.6 54.6c66.5 9.7 93.1 75.5 44.9 122.5l-430.7 378.3c-27.8 27.1-40.5 66.2-33.9 104.5l119 564.3c11.4 66.3-42.2 116.9-101.8 85.6L1104.2 1714c-38.8-25-88.6-25-127.4 0l-490.6 311.2c-59.5 31.3-113.1-19.3-101.8-85.6l64.3-299.6c15.3-63.1 55.1-117.5 110.7-151.1l449.1-277.7c25.9-16 35.7-39.2 26.4-68.2l-.1-.3c-5.9-18.6-35.8-32.2-55.2-30.6l-534 44.5c-64.9 5.2-129.1-15.9-178.3-58.5L38.8 892.5c-48.2-47-21.6-112.8 45-122.5l582.5-54.6c38.5-5.6 71.7-29.8 88.9-64.6l220.5-531c29.8-60.3 99.8-60.3 129.6 0z" fill="#d66d14"/><path d="M1106.4 120.4l220.5 531a118.04 118.04 0 0 0 88.8 64.5l582.6 54.7c66.6 9.6 93.2 75.5 45 122.4l-430.7 378.3c-27.8 27.2-40.5 66.2-34 104.5l119.1 564.4c11.3 66.3-42.3 116.8-101.8 85.5l-490.7-311.2c-38.7-25-88.5-25-127.3 0l-490.6 311.2c-59.6 31.3-113.2-19.2-101.8-85.5l64.3-299.6c15.2-63.2 55.1-117.6 110.7-151.2l449.1-277.6c25.9-16 35.6-39.2 26.4-68.2l-.1-.4c-6-18.6-35.8-32.1-55.3-30.6l-533.9 44.6c-64.9 5.1-129.1-16-178.4-58.5L39.8 893c-48.1-46.9-21.5-112.8 45-122.4l582.6-54.7c38.4-5.6 71.7-29.7 88.9-64.5l220.5-531c29.7-60.4 99.8-60.4 129.6 0z" fill="#d66e14"/><path d="M1107.4 120.9l220.5 531c17.2 34.8 50.4 59 88.9 64.6l582.5 54.6c66.6 9.7 93.2 75.5 45 122.5l-430.7 378.3c-27.8 27.1-40.5 66.2-33.9 104.5l119 564.3c11.4 66.3-42.2 116.9-101.8 85.6l-490.6-311.2c-38.8-25-88.6-25-127.4 0l-490.6 311.2c-59.5 31.3-113.1-19.3-101.8-85.6l64.3-299.6c15.3-63.1 55.1-117.5 110.7-151.1l449.1-277.7c25.9-16 35.7-39.2 26.4-68.2l-.1-.3c-5.9-18.6-35.8-32.1-55.2-30.6l-534 44.6c-64.9 5.1-129.1-16-178.3-58.6L40.9 893.6c-48.2-47-21.6-112.8 45-122.5l582.5-54.6c38.5-5.6 71.7-29.8 88.9-64.6l220.5-531c29.8-60.3 99.8-60.3 129.6 0z" fill="#d77014"/><path d="M1108.5 121.5l220.5 531a118.04 118.04 0 0 0 88.8 64.5l582.6 54.7c66.6 9.7 93.2 75.5 45 122.4l-430.7 378.4c-27.9 27.1-40.5 66.1-34 104.4l119.1 564.4c11.3 66.3-42.3 116.8-101.8 85.5l-490.7-311.2c-38.7-25-88.5-25-127.3 0l-490.6 311.2c-59.6 31.3-113.2-19.2-101.8-85.5l64.3-299.6c15.2-63.1 55.1-117.6 110.7-151.2l449.1-277.6c25.9-16 35.6-39.2 26.4-68.2l-.1-.4c-6-18.6-35.8-32.1-55.3-30.5l-533.9 44.5c-64.9 5.1-129.1-15.9-178.4-58.5L41.9 894.1c-48.1-46.9-21.5-112.7 45-122.4L669.5 717c38.4-5.6 71.7-29.7 88.9-64.5l220.5-531c29.7-60.4 99.8-60.4 129.6 0z" fill="#d87115"/><path d="M1109.5 122L1330 653c17.2 34.9 50.4 59 88.9 64.6l582.5 54.6c66.6 9.7 93.2 75.5 45 122.5L1615.7 1273c-27.8 27.1-40.5 66.2-33.9 104.5l119 564.3c11.4 66.3-42.2 116.9-101.8 85.6l-490.6-311.2c-38.8-25-88.6-25-127.4 0l-490.6 311.2c-59.5 31.3-113.2-19.3-101.8-85.6l64.3-299.5c15.3-63.2 55.1-117.6 110.7-151.2l449.1-277.7c25.9-15.9 35.7-39.2 26.4-68.2l-.1-.3c-6-18.6-35.8-32.1-55.3-30.6l-533.9 44.6c-64.9 5.1-129.1-16-178.3-58.6L43 894.7c-48.2-47-21.6-112.8 45-122.5l582.5-54.6c38.5-5.6 71.7-29.7 88.9-64.6l220.5-531c29.8-60.3 99.8-60.3 129.6 0z" fill="#d97215"/><path d="M1110.6 122.6l220.5 531c17.2 34.8 50.4 59 88.8 64.5l582.6 54.7c66.6 9.7 93.2 75.5 45 122.5l-430.7 378.3c-27.9 27.1-40.5 66.1-34 104.4l119 564.4c11.4 66.3-42.2 116.9-101.7 85.6l-490.7-311.3c-38.7-25-88.6-25-127.3 0L491.5 2028c-59.6 31.3-113.2-19.3-101.8-85.6l64.3-299.6c15.2-63.1 55.1-117.6 110.7-151.2l449.1-277.6c25.9-16 35.6-39.2 26.4-68.2l-.1-.4c-6-18.6-35.8-32.1-55.3-30.5l-533.9 44.5c-64.9 5.1-129.1-15.9-178.4-58.5L44 895.3c-48.1-47-21.6-112.8 45-122.5l582.6-54.7c38.4-5.5 71.7-29.7 88.9-64.5l220.5-531c29.7-60.4 99.8-60.4 129.6 0z" fill="#da7316"/><path d="M1111.6 123.1l220.5 531c17.2 34.9 50.4 59 88.9 64.6l582.5 54.6c66.6 9.7 93.2 75.5 45 122.5l-430.7 378.3c-27.8 27.1-40.5 66.2-33.9 104.5l119 564.3c11.4 66.3-42.2 116.9-101.8 85.6l-490.6-311.2c-38.8-25-88.6-25-127.4 0l-490.6 311.2c-59.5 31.3-113.2-19.3-101.8-85.6l64.3-299.5c15.3-63.2 55.1-117.6 110.7-151.2l449.1-277.7c25.9-15.9 35.7-39.2 26.4-68.2l-.1-.3c-6-18.6-35.8-32.1-55.3-30.6L451.9 1160c-64.9 5.1-129.1-16-178.3-58.6L45.1 895.8c-48.2-47-21.6-112.8 45-122.5l582.5-54.6c38.5-5.6 71.7-29.7 88.9-64.6l220.5-531c29.8-60.3 99.8-60.3 129.6 0z" fill="#db7416"/><path d="M1112.6 123.7l220.6 531c17.1 34.8 50.4 59 88.8 64.6l582.6 54.6c66.6 9.7 93.1 75.5 45 122.5l-430.7 378.3c-27.9 27.1-40.6 66.2-34 104.4l119 564.4c11.4 66.3-42.2 116.9-101.7 85.6l-490.7-311.2c-38.7-25.1-88.6-25.1-127.3 0l-490.6 311.2c-59.6 31.3-113.2-19.3-101.8-85.6l64.3-299.6c15.2-63.1 55.1-117.6 110.7-151.1l449.1-277.7c25.9-16 35.6-39.2 26.4-68.2l-.1-.3c-6-18.6-35.8-32.2-55.3-30.6L453 1160.5c-64.9 5.2-129.1-15.9-178.4-58.5L46.1 896.4c-48.1-47-21.6-112.8 45-122.5l582.6-54.6c38.4-5.6 71.7-29.8 88.9-64.6l220.5-531c29.7-60.3 99.8-60.3 129.5 0z" fill="#dc7516"/><path d="M1113.7 124.2l220.5 531c17.2 34.9 50.4 59 88.9 64.6l582.5 54.7c66.6 9.6 93.2 75.5 45 122.4l-430.7 378.3c-27.8 27.1-40.5 66.2-33.9 104.5l119 564.4c11.4 66.3-42.2 116.8-101.8 85.5l-490.6-311.2c-38.8-25-88.6-25-127.4 0l-490.6 311.2c-59.5 31.3-113.2-19.2-101.8-85.5l64.3-299.6c15.3-63.2 55.1-117.6 110.7-151.2l449.1-277.7c25.9-15.9 35.7-39.2 26.4-68.2l-.1-.3c-6-18.6-35.8-32.1-55.3-30.6L454 1161.1a243.58 243.58 0 0 1-178.3-58.5L47.2 896.9C-1 850 25.6 784.1 92.2 774.5l582.5-54.7c38.5-5.6 71.7-29.7 88.9-64.6l220.5-531c29.8-60.3 99.8-60.3 129.6 0z" fill="#dd7617"/><path d="M1114.7 124.8l220.6 531c17.1 34.8 50.4 59 88.8 64.6l582.6 54.6c66.6 9.7 93.1 75.5 45 122.5L1621 1275.8a117.78 117.78 0 0 0-34 104.5l119 564.3c11.4 66.3-42.2 116.9-101.8 85.6L1113.6 1719c-38.7-25-88.6-25-127.3 0l-490.6 311.2c-59.6 31.3-113.2-19.3-101.8-85.6l64.3-299.6c15.2-63.1 55.1-117.5 110.7-151.1l449.1-277.7c25.9-16 35.6-39.2 26.4-68.2l-.1-.3c-6-18.6-35.8-32.2-55.3-30.6l-533.9 44.5c-64.9 5.2-129.1-15.9-178.4-58.5L48.2 897.5c-48.1-47-21.6-112.8 45-122.5l582.6-54.6c38.4-5.6 71.7-29.8 88.8-64.6l220.6-531c29.7-60.3 99.8-60.3 129.5 0z" fill="#de7717"/><path d="M1115.8 125.4l220.5 531c17.2 34.8 50.4 58.9 88.9 64.5l582.5 54.7c66.6 9.6 93.2 75.5 45 122.4L1622 1276.3c-27.8 27.2-40.5 66.2-33.9 104.5l119 564.4c11.4 66.3-42.3 116.8-101.8 85.5l-490.6-311.2c-38.8-25-88.6-25-127.4 0l-490.6 311.2c-59.6 31.3-113.2-19.2-101.8-85.5l64.3-299.6c15.3-63.2 55.1-117.6 110.7-151.2l449.1-277.7c25.9-15.9 35.7-39.2 26.4-68.1l-.1-.4c-6-18.6-35.8-32.1-55.3-30.6l-533.9 44.6a243.58 243.58 0 0 1-178.3-58.5L49.3 898c-48.2-46.9-21.6-112.8 45-122.4l582.5-54.7c38.5-5.6 71.7-29.7 88.9-64.5l220.5-531c29.8-60.4 99.8-60.4 129.6 0z" fill="#df7817"/><path d="M1116.8 125.9l220.5 531c17.2 34.8 50.5 59 88.9 64.6l582.6 54.6c66.6 9.7 93.1 75.5 45 122.5L1623 1276.9c-27.8 27.1-40.5 66.2-33.9 104.5l119 564.3c11.4 66.3-42.2 116.9-101.8 85.6l-490.6-311.2c-38.7-25-88.6-25-127.3 0l-490.7 311.2c-59.5 31.3-113.1-19.3-101.7-85.6l64.3-299.6c15.2-63.1 55.1-117.5 110.7-151.1l449.1-277.7c25.9-16 35.6-39.2 26.4-68.2l-.1-.3c-6-18.6-35.8-32.1-55.3-30.6l-533.9 44.6c-64.9 5.1-129.2-16-178.4-58.6L50.3 898.6c-48.1-47-21.6-112.8 45-122.5l582.6-54.6c38.4-5.6 71.6-29.8 88.8-64.6l220.5-531c29.8-60.3 99.9-60.3 129.6 0z" fill="#df7918"/><path d="M1117.9 126.5l220.5 531c17.2 34.8 50.4 58.9 88.9 64.5l582.5 54.7c66.6 9.7 93.2 75.5 45 122.4l-430.7 378.3c-27.8 27.2-40.5 66.2-33.9 104.5l119 564.4c11.4 66.3-42.3 116.8-101.8 85.5l-490.6-311.2c-38.8-25-88.6-25-127.4 0l-490.6 311.2c-59.6 31.3-113.2-19.2-101.8-85.5l64.3-299.6c15.3-63.1 55.1-117.6 110.7-151.2l449.1-277.6c25.9-16 35.7-39.2 26.4-68.2l-.1-.4c-6-18.6-35.8-32.1-55.3-30.6l-533.9 44.6c-64.9 5.1-129.1-15.9-178.3-58.5L51.4 899.1c-48.2-46.9-21.6-112.7 45-122.4L678.9 722c38.5-5.6 71.7-29.7 88.9-64.5l220.5-531c29.8-60.4 99.8-60.4 129.6 0z" fill="#e07a18"/><path d="M1118.9 127l220.5 531c17.2 34.9 50.5 59 88.9 64.6l582.6 54.6c66.6 9.7 93.1 75.5 45 122.5L1625.1 1278c-27.8 27.1-40.5 66.2-33.9 104.5l119 564.3c11.4 66.3-42.2 116.9-101.8 85.6l-490.6-311.2c-38.8-25-88.6-25-127.3 0l-490.7 311.2c-59.5 31.3-113.1-19.3-101.7-85.6l64.3-299.5c15.2-63.2 55.1-117.6 110.7-151.2l449-277.7c26-15.9 35.7-39.2 26.5-68.2l-.2-.3c-5.9-18.6-35.7-32.1-55.2-30.6l-534 44.6c-64.8 5.1-129.1-16-178.3-58.6L52.4 899.7c-48.2-47-21.6-112.8 45-122.5L680 722.6c38.4-5.6 71.6-29.7 88.8-64.6l220.5-531c29.8-60.3 99.9-60.3 129.6 0z" fill="#e17b18"/><path d="M1120 127.6l220.5 531c17.2 34.8 50.4 59 88.9 64.5l582.5 54.7c66.6 9.7 93.2 75.5 45 122.5l-430.7 378.3c-27.8 27.1-40.5 66.1-34 104.4l119.1 564.4c11.4 66.3-42.3 116.9-101.8 85.6l-490.6-311.3c-38.8-25-88.6-25-127.4 0L500.9 2033c-59.6 31.3-113.2-19.3-101.8-85.6l64.3-299.6c15.3-63.1 55.1-117.6 110.7-151.2l449.1-277.6c25.9-16 35.7-39.2 26.4-68.2l-.1-.4c-6-18.6-35.8-32.1-55.3-30.5l-533.9 44.5c-64.9 5.1-129.1-15.9-178.3-58.5L53.5 900.3c-48.2-47-21.6-112.8 45-122.5L681 723.1c38.5-5.5 71.7-29.7 88.9-64.5l220.5-531c29.8-60.4 99.8-60.4 129.6 0z" fill="#e27c19"/><path d="M1121 128.1l220.5 531c17.2 34.9 50.5 59 88.9 64.6l582.6 54.6c66.5 9.7 93.1 75.5 45 122.5l-430.8 378.3c-27.8 27.1-40.5 66.2-33.9 104.5l119 564.3c11.4 66.3-42.2 116.9-101.8 85.6l-490.6-311.2c-38.8-25-88.6-25-127.3 0l-490.7 311.2c-59.5 31.3-113.1-19.3-101.8-85.6l64.4-299.5c15.2-63.2 55.1-117.6 110.7-151.2l449-277.7c25.9-15.9 35.7-39.2 26.4-68.2l-.1-.3c-5.9-18.6-35.8-32.1-55.2-30.6l-534 44.6c-64.8 5.1-129.1-16-178.3-58.6L54.5 900.8c-48.2-47-21.6-112.8 45-122.5l582.6-54.6c38.4-5.6 71.6-29.7 88.8-64.6l220.5-531c29.8-60.3 99.9-60.3 129.6 0z" fill="#e37e19"/><path d="M1122.1 128.7l220.5 531c17.2 34.8 50.4 59 88.9 64.6l582.5 54.6c66.6 9.7 93.2 75.5 45 122.5l-430.7 378.3c-27.8 27.1-40.5 66.2-34 104.4l119.1 564.4c11.3 66.3-42.3 116.9-101.8 85.6L1121 1722.8c-38.8-25-88.6-25-127.4 0L503 2034.1c-59.6 31.3-113.2-19.3-101.8-85.6l64.3-299.6c15.2-63.1 55.1-117.6 110.7-151.1l449.1-277.7c25.9-16 35.6-39.2 26.4-68.2l-.1-.3c-6-18.6-35.8-32.2-55.3-30.6l-533.9 44.5c-64.9 5.2-129.1-15.9-178.3-58.5L55.6 901.4c-48.2-47-21.6-112.8 45-122.5l582.5-54.6c38.5-5.6 71.7-29.8 88.9-64.6l220.5-531c29.8-60.3 99.8-60.3 129.6 0z" fill="#e47f19"/><path d="M1123.1 129.2l220.5 531c17.2 34.9 50.5 59 88.9 64.6l582.6 54.7c66.5 9.6 93.1 75.5 44.9 122.4l-430.7 378.3c-27.8 27.1-40.5 66.2-33.9 104.5l119 564.3c11.4 66.4-42.2 116.9-101.8 85.6L1122 1723.4c-38.8-25-88.6-25-127.3 0L504 2034.6c-59.5 31.3-113.1-19.2-101.8-85.6l64.4-299.5c15.2-63.2 55.1-117.6 110.7-151.2l449-277.7c25.9-15.9 35.7-39.2 26.4-68.2l-.1-.3c-5.9-18.6-35.8-32.1-55.2-30.6l-534 44.6c-64.8 5.1-129.1-16-178.3-58.5L56.6 901.9C8.4 855 35 789.1 101.6 779.5l582.6-54.7c38.4-5.6 71.6-29.7 88.8-64.6l220.5-531c29.8-60.3 99.9-60.3 129.6 0z" fill="#e5801a"/><path d="M1124.2 129.8l220.5 531c17.2 34.8 50.4 59 88.9 64.6l582.5 54.6c66.6 9.7 93.2 75.5 45 122.5l-430.7 378.3c-27.8 27.1-40.5 66.2-34 104.5l119.1 564.3c11.3 66.3-42.3 116.9-101.8 85.6L1123.1 1724c-38.8-25-88.6-25-127.4 0l-490.6 311.2c-59.6 31.3-113.2-19.3-101.8-85.6l64.3-299.6c15.2-63.1 55.1-117.5 110.7-151.1l449.1-277.7c25.9-16 35.6-39.2 26.4-68.2l-.1-.3c-6-18.6-35.8-32.2-55.3-30.6l-533.9 44.5c-64.9 5.2-129.1-15.9-178.3-58.5L57.7 902.5c-48.2-47-21.6-112.8 44.9-122.5l582.6-54.6c38.5-5.6 71.7-29.8 88.9-64.6l220.5-531c29.8-60.3 99.8-60.3 129.6 0z" fill="#e6811a"/><path d="M1125.2 130.3l220.5 531.1c17.2 34.8 50.5 58.9 88.9 64.5l582.6 54.7c66.5 9.6 93.1 75.5 44.9 122.4l-430.7 378.3c-27.8 27.2-40.5 66.2-33.9 104.5l119 564.4c11.4 66.3-42.2 116.8-101.8 85.5l-490.6-311.2c-38.8-25-88.6-25-127.4 0l-490.6 311.2c-59.5 31.3-113.1-19.2-101.8-85.5l64.4-299.6c15.2-63.2 55.1-117.6 110.6-151.2l449.1-277.7c25.9-15.9 35.7-39.2 26.4-68.1l-.1-.4c-5.9-18.6-35.8-32.1-55.2-30.6l-534 44.6c-64.8 5.1-129.1-16-178.3-58.5L58.7 903c-48.2-46.9-21.6-112.8 45-122.4l582.6-54.7a118.04 118.04 0 0 0 88.8-64.5l220.5-531.1c29.8-60.3 99.8-60.3 129.6 0z" fill="#e7821a"/><path d="M1126.3 130.9l220.5 531c17.2 34.8 50.4 59 88.8 64.6l582.6 54.6c66.6 9.7 93.2 75.5 45 122.5l-430.7 378.3c-27.8 27.1-40.5 66.2-34 104.5l119.1 564.3c11.3 66.3-42.3 116.9-101.8 85.6l-490.6-311.2c-38.8-25-88.6-25-127.4 0l-490.6 311.2c-59.6 31.3-113.2-19.3-101.8-85.6l64.3-299.6c15.2-63.1 55.1-117.5 110.7-151.1l449.1-277.7c25.9-16 35.6-39.2 26.4-68.2l-.1-.3c-6-18.6-35.8-32.1-55.3-30.6l-533.9 44.6c-64.9 5.1-129.1-16-178.3-58.6L59.8 903.6c-48.2-47-21.6-112.8 44.9-122.5l582.6-54.6c38.4-5.6 71.7-29.8 88.9-64.6l220.5-531c29.8-60.3 99.8-60.3 129.6 0z" fill="#e8831b"/><path d="M1127.3 131.5l220.5 531c17.2 34.8 50.5 58.9 88.9 64.5l582.6 54.7c66.5 9.6 93.1 75.5 44.9 122.4l-430.7 378.3c-27.8 27.2-40.5 66.2-33.9 104.5l119 564.4c11.4 66.3-42.2 116.8-101.8 85.5l-490.6-311.2c-38.8-25-88.6-25-127.4 0l-490.6 311.2c-59.5 31.3-113.1-19.2-101.8-85.5l64.3-299.6c15.3-63.2 55.1-117.6 110.7-151.2l449.1-277.6c25.9-16 35.7-39.2 26.4-68.2l-.1-.4c-5.9-18.6-35.8-32.1-55.2-30.6l-534 44.6c-64.8 5.1-129.1-15.9-178.3-58.5L60.8 904.1c-48.2-46.9-21.6-112.8 45-122.4L688.4 727a118.04 118.04 0 0 0 88.8-64.5l220.5-531c29.8-60.4 99.8-60.4 129.6 0z" fill="#e8841b"/><path d="M1128.4 132l220.5 531c17.2 34.9 50.4 59 88.8 64.6l582.6 54.6c66.6 9.7 93.2 75.5 45 122.5L1634.6 1283c-27.8 27.1-40.5 66.2-34 104.5l119.1 564.3c11.3 66.3-42.3 116.9-101.8 85.6l-490.6-311.2c-38.8-25-88.6-25-127.4 0l-490.6 311.2c-59.6 31.3-113.2-19.3-101.8-85.6l64.3-299.5c15.2-63.2 55.1-117.6 110.7-151.2l449.1-277.7c25.9-15.9 35.6-39.2 26.4-68.2l-.1-.3c-6-18.6-35.8-32.1-55.3-30.6l-533.9 44.6c-64.9 5.1-129.1-16-178.3-58.6L61.9 904.7c-48.2-47-21.6-112.8 44.9-122.5l582.6-54.6c38.4-5.6 71.7-29.7 88.9-64.6l220.5-531c29.8-60.3 99.8-60.3 129.6 0z" fill="#e9851c"/><path d="M1129.4 132.6l220.5 531c17.2 34.8 50.4 59 88.9 64.5l582.6 54.7c66.5 9.7 93.1 75.5 44.9 122.5l-430.7 378.3c-27.8 27.1-40.5 66.1-33.9 104.4l119 564.4c11.4 66.3-42.2 116.9-101.8 85.5l-490.6-311.2c-38.8-25-88.6-25-127.4 0l-490.6 311.2c-59.5 31.4-113.1-19.2-101.8-85.5l64.3-299.6c15.3-63.1 55.1-117.6 110.7-151.2l449.1-277.6c25.9-16 35.7-39.2 26.4-68.2l-.1-.4c-5.9-18.6-35.8-32.1-55.2-30.5l-534 44.5c-64.9 5.1-129.1-15.9-178.3-58.5L62.9 905.3c-48.2-47-21.6-112.8 45-122.5l582.5-54.7c38.5-5.5 71.7-29.7 88.9-64.5l220.5-531c29.8-60.4 99.8-60.4 129.6 0z" fill="#ea861c"/><path d="M1130.5 133.1l220.5 531c17.2 34.9 50.4 59 88.8 64.6l582.6 54.6c66.6 9.7 93.2 75.5 45 122.5l-430.7 378.3c-27.8 27.1-40.5 66.2-34 104.5l119.1 564.3c11.3 66.3-42.3 116.9-101.8 85.6l-490.7-311.2c-38.7-25-88.5-25-127.3 0l-490.6 311.2c-59.6 31.3-113.2-19.3-101.8-85.6l64.3-299.5c15.2-63.2 55.1-117.6 110.7-151.2l449.1-277.7c25.9-15.9 35.6-39.2 26.4-68.2l-.1-.3c-6-18.6-35.8-32.1-55.3-30.6L470.8 1170c-64.9 5.1-129.1-16-178.4-58.6L64 905.8c-48.2-47-21.6-112.8 44.9-122.5l582.6-54.6c38.4-5.6 71.7-29.7 88.9-64.6l220.5-531c29.7-60.3 99.8-60.3 129.6 0z" fill="#eb871c"/><path d="M1131.5 133.7l220.5 531c17.2 34.8 50.4 59 88.9 64.5l582.5 54.7c66.6 9.7 93.2 75.5 45 122.5l-430.7 378.3c-27.8 27.1-40.5 66.2-33.9 104.4l119 564.4c11.4 66.3-42.2 116.9-101.8 85.6l-490.6-311.3c-38.8-25-88.6-25-127.4 0l-490.6 311.3c-59.5 31.3-113.1-19.3-101.8-85.6l64.3-299.6c15.3-63.1 55.1-117.6 110.7-151.1l449.1-277.7c25.9-16 35.7-39.2 26.4-68.2l-.1-.3c-5.9-18.6-35.8-32.2-55.2-30.6l-534 44.5c-64.9 5.2-129.1-15.9-178.3-58.5L65 906.4c-48.2-47-21.6-112.8 45-122.5l582.5-54.7c38.5-5.5 71.7-29.7 88.9-64.5l220.5-531c29.8-60.3 99.8-60.3 129.6 0z" fill="#ec881d"/><path d="M1132.6 134.2l220.5 531c17.2 34.9 50.4 59 88.8 64.6l582.6 54.7c66.6 9.6 93.2 75.5 45 122.4l-430.7 378.3c-27.9 27.1-40.5 66.2-34 104.5l119.1 564.3c11.3 66.4-42.3 116.9-101.8 85.6l-490.7-311.2c-38.7-25-88.5-25-127.3 0l-490.6 311.2c-59.6 31.3-113.2-19.2-101.8-85.6l64.3-299.5c15.2-63.2 55.1-117.6 110.7-151.2l449.1-277.7c25.9-15.9 35.6-39.2 26.4-68.2l-.1-.3c-6-18.6-35.8-32.1-55.3-30.6l-533.9 44.6c-64.9 5.1-129.1-16-178.4-58.5L66 906.9C17.9 860 44.5 794.1 111 784.5l582.6-54.7c38.4-5.6 71.7-29.7 88.9-64.6l220.5-531c29.7-60.3 99.8-60.3 129.6 0z" fill="#ed891d"/><path d="M1133.6 134.8l220.5 531c17.2 34.8 50.4 59 88.9 64.6l582.5 54.6c66.6 9.7 93.2 75.5 45 122.5l-430.7 378.3c-27.8 27.1-40.5 66.2-33.9 104.4l119 564.4c11.4 66.3-42.2 116.9-101.8 85.6L1132.5 1729c-38.8-25-88.6-25-127.4 0l-490.6 311.2c-59.5 31.3-113.1-19.3-101.8-85.6L477 1655c15.3-63.1 55.1-117.5 110.7-151.1l449.1-277.7c25.9-16 35.7-39.2 26.4-68.2l-.1-.3c-6-18.6-35.8-32.2-55.3-30.6l-533.9 44.5c-64.9 5.2-129.1-15.9-178.3-58.5L67.1 907.5c-48.2-47-21.6-112.8 45-122.5l582.5-54.6c38.5-5.6 71.7-29.8 88.9-64.6l220.5-531c29.8-60.3 99.8-60.3 129.6 0z" fill="#ee8b1d"/><path d="M1134.7 135.3l220.5 531c17.2 34.9 50.4 59 88.8 64.6l582.6 54.7c66.6 9.6 93.2 75.5 45 122.4l-430.7 378.3c-27.9 27.2-40.5 66.2-34 104.5l119 564.4c11.4 66.3-42.2 116.8-101.7 85.5l-490.7-311.2c-38.7-25-88.5-25-127.3 0l-490.6 311.2c-59.6 31.3-113.2-19.2-101.8-85.5l64.3-299.6c15.2-63.2 55.1-117.6 110.7-151.2l449.1-277.7c25.9-15.9 35.6-39.2 26.4-68.1l-.1-.4c-6-18.6-35.8-32.1-55.3-30.6L475 1172.2c-64.9 5.1-129.1-16-178.4-58.5L68.1 908c-48.1-46.9-21.6-112.8 45-122.4l582.6-54.7c38.4-5.6 71.7-29.7 88.9-64.6l220.5-531c29.7-60.3 99.8-60.3 129.6 0z" fill="#ef8c1e"/><path d="M1135.7 135.9l220.5 531c17.2 34.8 50.4 59 88.9 64.6l582.5 54.6c66.6 9.7 93.2 75.5 45 122.5l-430.7 378.3c-27.8 27.1-40.5 66.2-33.9 104.5l119 564.3c11.4 66.3-42.2 116.9-101.8 85.6l-490.6-311.2c-38.8-25-88.6-25-127.4 0l-490.6 311.2c-59.5 31.3-113.2-19.3-101.8-85.6l64.3-299.6c15.3-63.1 55.1-117.5 110.7-151.1l449.1-277.7c25.9-16 35.7-39.2 26.4-68.2l-.1-.3c-6-18.6-35.8-32.1-55.3-30.6L476 1172.8c-64.9 5.1-129.1-16-178.3-58.6L69.2 908.6c-48.2-47-21.6-112.8 45-122.5l582.5-54.6c38.5-5.6 71.7-29.8 88.9-64.6l220.5-531c29.8-60.3 99.8-60.3 129.6 0z" fill="#f08d1e"/><path d="M1136.8 136.5l220.5 531a118.04 118.04 0 0 0 88.8 64.5l582.6 54.7c66.6 9.6 93.1 75.5 45 122.4L1643 1287.4c-27.9 27.2-40.6 66.2-34 104.5l119 564.4c11.4 66.3-42.2 116.8-101.7 85.5l-490.7-311.2c-38.7-25-88.6-25-127.3 0l-490.6 311.2c-59.6 31.3-113.2-19.2-101.8-85.5l64.3-299.6c15.2-63.2 55.1-117.6 110.7-151.2l449.1-277.6c25.9-16 35.6-39.2 26.4-68.2l-.1-.4c-6-18.6-35.8-32.1-55.3-30.6l-533.9 44.6c-64.9 5.1-129.1-16-178.4-58.5L70.2 909.1c-48.1-46.9-21.6-112.8 45-122.4L697.8 732c38.4-5.6 71.7-29.7 88.9-64.5l220.5-531c29.7-60.4 99.8-60.4 129.6 0z" fill="#f18e1e"/><path d="M1137.8 137l220.5 531c17.2 34.9 50.4 59 88.9 64.6l582.5 54.6c66.6 9.7 93.2 75.5 45 122.5L1644 1288c-27.8 27.1-40.5 66.2-33.9 104.5l119 564.3c11.4 66.3-42.2 116.9-101.8 85.6l-490.6-311.2c-38.8-25-88.6-25-127.4 0l-490.6 311.2c-59.5 31.3-113.2-19.3-101.8-85.6l64.3-299.6c15.3-63.1 55.1-117.5 110.7-151.1l449.1-277.7c25.9-16 35.7-39.2 26.4-68.2l-.1-.3c-6-18.6-35.8-32.1-55.3-30.6l-533.9 44.6c-64.9 5.1-129.1-16-178.3-58.6L71.3 909.7c-48.2-47-21.6-112.8 45-122.5l582.5-54.6c38.5-5.6 71.7-29.7 88.9-64.6l220.5-531c29.8-60.3 99.8-60.3 129.6 0z" fill="#f18f1f"/><path d="M1138.8 137.6l220.6 531a117.64 117.64 0 0 0 88.8 64.5l582.6 54.7c66.6 9.7 93.1 75.5 45 122.5l-430.7 378.3c-27.9 27.1-40.6 66.1-34 104.4l119 564.4c11.4 66.3-42.2 116.9-101.8 85.5l-490.6-311.2c-38.7-25-88.6-25-127.3 0l-490.6 311.2c-59.6 31.4-113.2-19.2-101.8-85.5l64.3-299.6c15.2-63.1 55.1-117.6 110.7-151.2l449.1-277.6c25.9-16 35.6-39.2 26.4-68.2l-.1-.4c-6-18.6-35.8-32.1-55.3-30.5l-533.9 44.5c-64.9 5.1-129.1-15.9-178.4-58.5L72.3 910.3c-48.1-47-21.6-112.8 45-122.5l582.6-54.7a117.64 117.64 0 0 0 88.8-64.5l220.6-531c29.7-60.4 99.8-60.4 129.5 0z" fill="#f2901f"/><path d="M1139.9 138.1l220.5 531c17.2 34.9 50.4 59 88.9 64.6l582.5 54.6c66.6 9.7 93.2 75.5 45 122.5l-430.7 378.3c-27.8 27.1-40.5 66.2-33.9 104.5l119 564.3c11.4 66.3-42.3 116.9-101.8 85.6l-490.6-311.2c-38.8-25-88.6-25-127.4 0l-490.6 311.2c-59.6 31.3-113.2-19.3-101.8-85.6l64.3-299.5c15.3-63.2 55.1-117.6 110.7-151.2l449.1-277.7c25.9-15.9 35.7-39.2 26.4-68.2l-.1-.3c-6-18.6-35.8-32.1-55.3-30.6L480.2 1175c-64.9 5.1-129.1-16-178.3-58.6L73.4 910.8c-48.2-47-21.6-112.8 45-122.5l582.5-54.6c38.5-5.6 71.7-29.7 88.9-64.6l220.5-531c29.8-60.3 99.8-60.3 129.6 0z" fill="#f3911f"/><path d="M1140.9 138.7l220.5 531c17.2 34.8 50.5 59 88.9 64.5l582.6 54.7c66.6 9.7 93.1 75.5 45 122.5l-430.8 378.3c-27.8 27.1-40.5 66.1-33.9 104.4l119 564.4c11.4 66.3-42.2 116.9-101.8 85.6l-490.6-311.3c-38.7-25-88.6-25-127.3 0l-490.7 311.3c-59.5 31.3-113.1-19.3-101.7-85.6l64.3-299.6c15.2-63.1 55.1-117.6 110.7-151.2l449.1-277.6c25.9-16 35.6-39.2 26.4-68.2l-.1-.3c-6-18.7-35.8-32.2-55.3-30.6l-533.9 44.5a242.97 242.97 0 0 1-178.4-58.5L74.4 911.4c-48.1-47-21.6-112.8 45-122.5L702 734.2a117.64 117.64 0 0 0 88.8-64.5l220.6-531c29.7-60.4 99.8-60.4 129.5 0z" fill="#f49220"/><path d="M1142 139.2l220.5 531c17.2 34.9 50.4 59 88.9 64.6l582.5 54.6c66.6 9.7 93.2 75.6 45 122.5l-430.7 378.3c-27.8 27.1-40.5 66.2-33.9 104.5l119 564.3c11.4 66.4-42.3 116.9-101.8 85.6l-490.6-311.2c-38.8-25-88.6-25-127.4 0l-490.6 311.2c-59.6 31.3-113.2-19.2-101.8-85.6l64.3-299.5c15.3-63.2 55.1-117.6 110.7-151.2l449.1-277.7c25.9-15.9 35.7-39.2 26.4-68.2l-.1-.3c-6-18.6-35.8-32.1-55.3-30.6l-533.9 44.6a243.58 243.58 0 0 1-178.3-58.5L75.5 911.9c-48.2-46.9-21.6-112.8 45-122.5L703 734.8c38.5-5.6 71.7-29.7 88.9-64.6l220.5-531c29.8-60.3 99.8-60.3 129.6 0z" fill="#f59320"/><path d="M1143 139.8l220.5 531c17.2 34.8 50.5 59 88.9 64.6L2035 790c66.6 9.7 93.1 75.5 45 122.5l-430.8 378.3c-27.8 27.1-40.5 66.2-33.9 104.4l119 564.4c11.4 66.3-42.2 116.9-101.8 85.6L1141.9 1734c-38.7-25-88.6-25-127.3 0l-490.7 311.2c-59.5 31.3-113.1-19.3-101.7-85.6l64.3-299.6c15.2-63.1 55.1-117.5 110.7-151.1l449-277.7c26-16 35.7-39.2 26.5-68.2l-.2-.3c-5.9-18.6-35.7-32.2-55.2-30.6l-534 44.5c-64.8 5.2-129.1-15.9-178.3-58.5L76.5 912.5c-48.2-47-21.6-112.8 45-122.5l582.6-54.6c38.4-5.6 71.6-29.8 88.8-64.6l220.5-531c29.8-60.3 99.9-60.3 129.6 0z" fill="#f69420"/><path d="M1144.1 140.3l220.5 531c17.2 34.9 50.4 59 88.9 64.6l582.5 54.7c66.6 9.6 93.2 75.5 45 122.4l-430.7 378.3c-27.8 27.1-40.5 66.2-34 104.5l119.1 564.4c11.4 66.3-42.3 116.8-101.8 85.5L1143 1734.5c-38.8-25-88.6-25-127.4 0L525 2045.7c-59.6 31.3-113.2-19.2-101.8-85.5l64.3-299.6c15.3-63.2 55.1-117.6 110.7-151.2l449.1-277.7c25.9-15.9 35.7-39.2 26.4-68.1l-.1-.4c-6-18.6-35.8-32.1-55.3-30.6l-533.9 44.6a243.58 243.58 0 0 1-178.3-58.5L77.6 913c-48.2-46.9-21.6-112.8 45-122.4l582.5-54.7c38.5-5.6 71.7-29.7 88.9-64.6l220.5-531c29.8-60.3 99.8-60.3 129.6 0z" fill="#f79521"/><path d="M1145.1 140.9l220.5 531c17.2 34.8 50.5 59 88.9 64.6l582.6 54.6c66.5 9.7 93.1 75.5 45 122.5l-430.8 378.3c-27.8 27.1-40.5 66.2-33.9 104.5l119 564.3c11.4 66.3-42.2 116.9-101.8 85.6L1144 1735.1c-38.8-25-88.6-25-127.3 0L526 2046.3c-59.5 31.3-113.1-19.3-101.8-85.6l64.4-299.6c15.2-63.1 55.1-117.5 110.7-151.1l449-277.7c25.9-16 35.7-39.2 26.4-68.2l-.1-.3c-5.9-18.6-35.7-32.1-55.2-30.6l-534 44.6c-64.8 5.1-129.1-16-178.3-58.6L78.6 913.6c-48.2-47-21.6-112.8 45-122.5l582.6-54.6c38.4-5.6 71.6-29.8 88.8-64.6l220.5-531c29.8-60.3 99.9-60.3 129.6 0z" fill="#f89621"/><path d="M1146.2 141.5l220.5 531c17.2 34.8 50.4 58.9 88.9 64.5l582.5 54.7c66.6 9.6 93.2 75.5 45 122.4l-430.7 378.3c-27.8 27.2-40.5 66.2-34 104.5l119.1 564.4c11.3 66.3-42.3 116.8-101.8 85.5l-490.6-311.2c-38.8-25-88.6-25-127.4 0l-490.6 311.2c-59.6 31.3-113.2-19.2-101.8-85.5l64.3-299.6c15.2-63.2 55.1-117.6 110.7-151.2l449.1-277.6c25.9-16 35.6-39.2 26.4-68.2l-.1-.4c-6-18.6-35.8-32.1-55.3-30.6l-533.9 44.6a243.58 243.58 0 0 1-178.3-58.5L79.7 914.1c-48.2-46.9-21.6-112.8 45-122.4L707.2 737c38.5-5.6 71.7-29.7 88.9-64.5l220.5-531c29.8-60.4 99.8-60.4 129.6 0z" fill="#f99722"/><path d="M1147.2 142l220.5 531c17.2 34.8 50.5 59 88.9 64.6l582.6 54.6c66.5 9.7 93.1 75.5 45 122.5L1653.4 1293c-27.8 27.1-40.5 66.2-33.9 104.5l119 564.3c11.4 66.3-42.2 116.9-101.8 85.6l-490.6-311.2c-38.8-25-88.6-25-127.3 0l-490.7 311.2c-59.5 31.3-113.1-19.3-101.8-85.6l64.4-299.6c15.2-63.1 55.1-117.5 110.7-151.1l449-277.7c25.9-16 35.7-39.2 26.4-68.2l-.1-.3c-5.9-18.6-35.8-32.1-55.2-30.6l-534 44.6c-64.8 5.1-129.1-16-178.3-58.6L80.7 914.7c-48.2-47-21.6-112.8 45-122.5l582.6-54.6c38.4-5.6 71.6-29.8 88.8-64.6l220.5-531c29.8-60.3 99.9-60.3 129.6 0z" fill="#fa9922"/><path d="M1148.3 142.6l220.5 531c17.2 34.8 50.4 58.9 88.9 64.5l582.5 54.7c66.6 9.7 93.2 75.5 45 122.4l-430.7 378.4c-27.8 27.1-40.5 66.1-34 104.4l119.1 564.4c11.3 66.3-42.3 116.9-101.8 85.5l-490.6-311.2c-38.8-25-88.6-25-127.4 0l-490.6 311.2c-59.6 31.4-113.2-19.2-101.8-85.5l64.3-299.6c15.2-63.1 55.1-117.6 110.7-151.2l449.1-277.6c25.9-16 35.6-39.2 26.4-68.2l-.1-.4c-6-18.6-35.8-32.1-55.3-30.5l-533.9 44.5c-64.9 5.1-129.1-15.9-178.3-58.5L81.8 915.2c-48.2-46.9-21.6-112.7 44.9-122.4l582.6-54.7c38.5-5.6 71.7-29.7 88.9-64.5l220.5-531c29.8-60.4 99.8-60.4 129.6 0z" fill="#fa9a22"/><path d="M1149.3 143.1l220.5 531c17.2 34.9 50.5 59 88.9 64.6l582.6 54.6c66.5 9.7 93.1 75.5 44.9 122.5l-430.7 378.3c-27.8 27.1-40.5 66.2-33.9 104.5l119 564.3c11.4 66.3-42.2 116.9-101.8 85.6l-490.6-311.2c-38.8-25-88.6-25-127.4 0l-490.6 311.2c-59.5 31.3-113.1-19.3-101.8-85.6l64.4-299.5c15.2-63.2 55.1-117.6 110.7-151.2l449-277.7c25.9-15.9 35.7-39.2 26.4-68.2l-.1-.3c-5.9-18.6-35.8-32.1-55.2-30.6l-534 44.6c-64.8 5.1-129.1-16-178.3-58.6L82.8 915.8c-48.2-47-21.6-112.8 45-122.5l582.6-54.6c38.4-5.6 71.6-29.7 88.8-64.6l220.5-531c29.8-60.3 99.8-60.3 129.6 0z" fill="#fb9b23"/><path d="M1150.4 143.7l220.5 531c17.2 34.8 50.4 59 88.8 64.5l582.6 54.7c66.6 9.7 93.2 75.5 45 122.5l-430.7 378.3c-27.8 27.1-40.5 66.1-34 104.4l119.1 564.4c11.3 66.3-42.3 116.9-101.8 85.6l-490.6-311.3c-38.8-25-88.6-25-127.4 0l-490.6 311.3c-59.6 31.3-113.2-19.3-101.8-85.6l64.3-299.6c15.2-63.1 55.1-117.6 110.7-151.2l449.1-277.6c25.9-16 35.6-39.2 26.4-68.2l-.1-.3c-6-18.7-35.8-32.2-55.3-30.6l-533.9 44.5c-64.9 5.2-129.1-15.9-178.3-58.5L83.9 916.4c-48.2-47-21.6-112.8 44.9-122.5l582.6-54.7c38.4-5.5 71.7-29.7 88.9-64.5l220.5-531c29.8-60.4 99.8-60.4 129.6 0z" fill="#fc9c23"/><path d="M1151.4 144.2l220.5 531c17.2 34.9 50.5 59 88.9 64.6l582.6 54.6c66.5 9.7 93.1 75.6 44.9 122.5l-430.7 378.3c-27.8 27.1-40.5 66.2-33.9 104.5l119 564.3c11.4 66.4-42.2 116.9-101.8 85.6l-490.6-311.2c-38.8-25-88.6-25-127.4 0l-490.6 311.2c-59.5 31.3-113.1-19.2-101.8-85.6l64.3-299.5c15.3-63.2 55.1-117.6 110.7-151.2l449.1-277.7c25.9-15.9 35.7-39.2 26.4-68.2l-.1-.3c-5.9-18.6-35.8-32.1-55.2-30.6l-534 44.6c-64.8 5.1-129.1-16-178.3-58.5L84.9 916.9c-48.2-46.9-21.6-112.8 45-122.5l582.6-54.6c38.4-5.6 71.6-29.7 88.8-64.6l220.5-531c29.8-60.3 99.8-60.3 129.6 0z" fill="#fd9d23"/><path d="M1152.5 144.8l220.5 531c17.2 34.8 50.4 59 88.8 64.6l582.6 54.6c66.6 9.7 93.2 75.5 45 122.5l-430.7 378.3c-27.8 27.1-40.5 66.2-34 104.4l119.1 564.4c11.3 66.3-42.3 116.9-101.8 85.6L1151.4 1739c-38.8-25-88.6-25-127.4 0l-490.6 311.2c-59.6 31.3-113.2-19.3-101.8-85.6l64.3-299.6c15.2-63.1 55.1-117.6 110.7-151.1l449.1-277.7c25.9-16 35.6-39.2 26.4-68.2l-.1-.3c-6-18.6-35.8-32.2-55.3-30.6l-533.9 44.5c-64.9 5.2-129.1-15.9-178.3-58.5L86 917.5c-48.2-47-21.6-112.8 44.9-122.5l582.6-54.6c38.4-5.6 71.7-29.8 88.9-64.6l220.5-531c29.8-60.3 99.8-60.3 129.6 0z" fill="#fe9e24"/><path d="M1153.5 145.3l220.5 531c17.2 34.9 50.4 59 88.9 64.6l582.6 54.7c66.5 9.6 93.1 75.5 44.9 122.4l-430.7 378.3c-27.8 27.1-40.5 66.2-33.9 104.5l119 564.4c11.4 66.3-42.2 116.8-101.8 85.5l-490.6-311.2c-38.8-25-88.6-25-127.4 0l-490.6 311.2c-59.5 31.3-113.1-19.2-101.8-85.5l64.3-299.6c15.3-63.2 55.1-117.6 110.7-151.2l449.1-277.7c25.9-15.9 35.7-39.2 26.4-68.1l-.1-.4c-5.9-18.6-35.8-32.1-55.2-30.6l-534 44.6a243.58 243.58 0 0 1-178.3-58.5L87 918c-48.2-46.9-21.6-112.8 45-122.4l582.5-54.7c38.5-5.6 71.7-29.7 88.9-64.6l220.5-531c29.8-60.3 99.8-60.3 129.6 0z" fill="#ff9f24"/><path d="M493.8 1182.2q267-22.3 534-44.6c19.4-1.5 49.3 12 55.2 30.6q.1.2.1.4c9.3 28.9-.5 52.2-26.4 68.1q-224.5 138.9-449.1 277.7c-55.6 33.6-95.4 88-110.7 151.2q-32.1 149.8-64.3 299.6c-11.3 66.3 42.3 116.8 101.8 85.5q245.3-155.6 490.6-311.2c10.2-6.5 56.4-38 119.7-81.5 19.7-28.4 42.1-59.1 62.5-93 19.5-32.6 528.6-613.4 515.1-647.9-33 8.3-86.9 19.8-128.4 11.7-122.1-11.8-644.3 50.3-826.3 120.6-185.6 70.1-304.6 99.8-351 126.5a240.49 240.49 0 0 0 77.2 6.3zM87 918q114.3 102.8 228.5 205.7c29.4 25.4 64.1 43.1 101.1 52.2 46.4-26.7 165.4-56.4 351-126.5 182-70.3 704.2-132.4 826.3-120.6 41.5 8.1 95.4-3.4 128.4-11.7-9.3-24-292.4-138.6-267-176.8-83.6-5-703.8-4.8-740.8.6Q423.3 768.2 132 795.6c-66.6 9.6-93.2 75.5-45 122.4zm1120.2 647c-20.4 33.9-42.8 64.6-62.5 93l454.9-316.7c33.1-23.8 55.2-40.1 60.1-45q209.5-184 419-368c-162.4 20.3-184.7-33.7-349.8-12.1-1.4.3-3.7.2-6.6.9 13.5 34.5-495.6 615.3-515.1 647.9zm515.1-647.9c2.9-.7 5.2-.6 6.6-.9 165.1-21.6 187.4 32.4 349.8 12.1q5.9-5.1 11.7-10.3c48.2-46.9 21.6-112.8-44.9-122.4q-291.3-27.4-582.6-54.7c-1.5-.2-4.1-.4-7.6-.6-25.4 38.2 257.7 152.8 267 176.8z" fill="url(#A)"/><path d="M1457.9 740.9c48.7 2 97.4 5.2 146.1 8.8l72.9 5.8 72.8 6.5 72.8 7.1 72.7 7.9 145.2 18.6c-48.8-2-97.4-5.2-146.1-8.8l-72.9-5.8-72.9-6.5-72.7-7.2-72.8-7.9-145.1-18.5z" fill="url(#B)"/><path d="M132 795.6l39.5-4.7 39.6-4.4 79.2-8.9 158.4-16.7L607.1 745l79.2-7.6 19.9-1.9 4.9-.5 2.5-.2 2.3-.4 4.5-.8 4.6-1.1 4.5-1.3s3.1-.9 4.5-1.4l8.8-3.5c5.8-2.5 11.2-5.6 16.5-9.1 5.3-3.4 10.1-7.4 14.8-11.6 4.5-4.4 8.8-9 12.6-14 1-1.2 1.8-2.6 2.7-3.8 1-1.3 1.9-2.6 2.7-4l2.4-4 2.2-4 1.1-2 1-2.3 1.9-4.6 3.8-9.2 30.7-73.5 62-146.6L960 291.2l31.8-72.9 16-36.5 16.1-36.5-14.4 37.2-14.6 37-29.2 74.2-59.5 147.8-60.1 147.6-30.4 73.7-3.8 9.2-1.9 4.6-.9 2.3-1.3 2.4-2.5 4.7-2.7 4.5c-.9 1.5-1.9 2.9-2.9 4.3-1.1 1.5-2 2.9-3.1 4.3-4.2 5.6-8.9 10.8-14 15.6-5.1 4.7-10.5 9.2-16.4 13-5.8 3.8-11.9 7.3-18.4 10-3.1 1.5-6.4 2.6-9.7 3.9l-5 1.5c-1.7.6-3.3 1-5.1 1.4l-5.1 1.2-5.2.9c-.9.2-1.8.4-2.6.5l-2.5.2-5 .5-19.8 1.8-79.4 7.2-158.7 13.9-158.8 13-79.5 6.1-39.7 3z" fill="url(#C)"/><path d="M432.6 1965.2l53.3-271.6 3.5-16.9 1.7-8.5.9-4.3 1.1-4.3c2.8-11.5 6.7-22.6 11.1-33.5 4.4-11 9.9-21.4 15.8-31.6 6-10.2 12.8-19.8 20.1-29.1 7.5-9.2 15.5-17.9 24.2-25.9 8.7-7.9 17.8-15.5 27.6-22.2 2.4-1.8 4.9-3.2 7.4-4.9 2.5-1.5 5-3.2 7.4-4.7l14.7-9.1 29.4-18.2 117.8-72.5 118.1-71.8 118.6-71.2 29.8-17.7 14.9-8.8c5-2.9 9.9-5.7 14.3-9.2 8.9-6.8 16.3-15.9 19.5-26.8 3.5-10.9 2.4-22.8-.7-33.8 3.7 10.8 5.5 22.8 2.6 34.3s-10.2 21.5-19.2 29.1c-4.5 3.8-9.5 6.9-14.3 10l-14.5 9.4-29.1 18.7-116.7 74.3-117.1 73.7-117.5 73-29.4 18.1-14.8 9.1-7.2 4.5c-2.3 1.5-4.8 3-7 4.6-9.3 6.3-18 13.5-26.4 21-8.2 7.6-15.9 15.9-23.2 24.5-7 8.7-13.6 17.8-19.5 27.5-5.7 9.6-11.1 19.5-15.4 30-4.4 10.3-8.3 21-11.1 31.8l-1.2 4.1c-.3 1.3-.6 2.8-.9 4.2l-1.9 8.4-3.8 16.9-62.9 269.4z" fill="url(#D)"/></svg>